<svg width="682" height="569" viewBox="0 0 682 569" fill="none" xmlns="http://www.w3.org/2000/svg">
<path d="M636 3.5333C590.667 20.2 31.3333 235 23.0667 239C-4.26668 251.933 -7.46668 269 15.3333 280.6C17.6 281.8 55.3333 293.8 99.4667 307.533L179.6 332.467L361.467 218.6C461.6 156.067 545.467 104.067 547.867 103.267C554.133 101.133 559.467 101.267 561.867 103.8C563.6 105.533 563.733 106.333 562.267 108.867C561.467 110.6 494.933 171 414.667 243C334.4 315.133 268.4 374.6 268.133 375.267C267.867 375.933 265.2 411.933 262.133 455.267L256.533 533.933L262.667 533.133C266 532.733 271.2 531 274.267 529.267C277.467 527.667 298.267 508.733 320.8 487.267C343.2 465.8 362.4 447.8 363.333 447.533C364.267 447.133 400 472.467 442.8 503.8C485.467 535.133 523.733 562.2 527.867 564.067C538.667 569.133 550.667 569.533 558.533 565.4C565.6 561.667 572.4 552.333 575.333 542.6C576.4 538.867 600.933 425.933 629.6 291.667C677.467 68.1999 681.867 46.5999 681.867 34.9999C681.867 24.0666 681.467 21.4 678.533 15.6666C676.533 11.5333 672.933 7.39997 669.467 4.99997C661.6 -0.466698 648.533 -1.13336 636 3.5333Z" fill="#EFE4CB"/>
</svg>
