<svg width="683" height="389" viewBox="0 0 683 389" fill="none" xmlns="http://www.w3.org/2000/svg">
<path d="M286 0.466755C273.067 1.40009 256.533 3.93342 250 5.93342C238.667 9.40009 224.667 21.9334 227.2 26.2001C227.733 26.8668 230.267 27.9334 233.067 28.4668C245.333 30.7334 255.6 37.6668 260.267 46.7334C268.133 62.2001 271.733 110.733 267.467 145C264.667 167.667 263.467 172.867 259.2 181.133C248.133 203.267 222.4 185.4 194.133 135.8C184 118.2 155.733 61.6668 149.467 46.6001C141.733 28.3334 139.333 25.0001 130.667 20.6001L123.333 16.8668L68 17.2668C18 17.6668 12.2667 17.9334 8.39999 20.0668C2.13332 23.4001 -0.533346 28.0668 0.399987 34.0668C1.19999 40.4668 22.1333 87.1334 37.6 117C67.7333 175.133 93.3333 217.4 120.533 254.333C160.667 308.6 178.4 326.2 219.333 352.333C238.4 364.6 252.267 371.4 269.333 377.133C292.8 385 302.933 386.467 338 387.267C372.8 388.067 382.8 387 390.267 381.933C396.267 377.8 398.133 372.067 399.333 354.333C400.4 336.733 403.867 321.667 408.533 313.667C412.8 306.6 421.733 298.333 425.733 298.2C439.2 297.533 446.8 303.133 475.067 334.867C501.6 364.6 511.333 373.267 526 380.333C532.667 383.4 540.667 386.6 544 387.4C552 389.267 660 387.133 666.933 385.133C673.867 383 681.333 375.667 681.467 370.867C682 357.667 680 351.667 670.8 337.667C658.533 319.267 648.133 307.533 612.533 272.333C574.667 234.867 572.133 231.4 572 218.867C572 208.333 576.933 200.333 610.133 156.333C656.933 94.3334 675.6 64.3334 680.8 43.2668C683.867 30.8668 682.133 24.8668 674.267 20.6001L668.667 17.6668L601.333 18.0668C553.733 18.4668 533.067 19.0001 530.667 20.0668C526.133 22.2001 521.467 30.0668 515.467 45.0001C499.467 84.8667 466.533 142.333 444.8 168.2C436.133 178.467 422.667 189 418.267 189C412 189 406.8 185 402.933 177L399.333 169.667L399.733 100.467C400.133 25.9334 399.867 23.8001 393.067 13.9334C386.267 4.33342 369.733 1.00009 325.333 0.333422C307.333 0.200088 289.733 0.200088 286 0.466755Z" fill="#EFE4CB"/>
</svg>
